<?xml version="1.0" encoding="UTF-8"?><svg xmlns="http://www.w3.org/2000/svg" xmlns:xlink="http://www.w3.org/1999/xlink" stroke-dasharray="none" shape-rendering="auto" font-family="'Dialog'" width="581" text-rendering="auto" fill-opacity="1" contentScriptType="text/ecmascript" color-interpolation="auto" color-rendering="auto" preserveAspectRatio="xMidYMid meet" font-size="12" viewBox="0 0 581 501" fill="black" stroke="black" image-rendering="auto" stroke-miterlimit="10" zoomAndPan="magnify" version="1.0" stroke-linecap="square" stroke-linejoin="miter" contentStyleType="text/css" font-style="normal" height="501" stroke-width="1" stroke-dashoffset="0" font-weight="normal" stroke-opacity="1">
<!--Generated by the Batik Graphics2D SVG Generator-->
<defs id="genericDefs"/>
<g>
<defs id="defs1">
<linearGradient x1="10" x2="10" y1="54" gradientUnits="userSpaceOnUse" y2="391" xlink:type="simple" xlink:actuate="onLoad" id="linearGradient1" xlink:show="other" spreadMethod="pad">
<stop stop-opacity="1" stop-color="white" offset="0%"/>
<stop stop-opacity="1" stop-color="rgb(195,209,213)" offset="100%"/>
</linearGradient>
<linearGradient x1="30" x2="30" y1="114" gradientUnits="userSpaceOnUse" y2="351" xlink:type="simple" xlink:actuate="onLoad" id="linearGradient2" xlink:show="other" spreadMethod="pad">
<stop stop-opacity="1" stop-color="white" offset="0%"/>
<stop stop-opacity="1" stop-color="rgb(195,209,213)" offset="100%"/>
</linearGradient>
<linearGradient x1="50" x2="50" y1="230" gradientUnits="userSpaceOnUse" y2="300" xlink:type="simple" xlink:actuate="onLoad" id="linearGradient3" xlink:show="other" spreadMethod="pad">
<stop stop-opacity="1" stop-color="white" offset="0%"/>
<stop stop-opacity="1" stop-color="rgb(195,209,213)" offset="100%"/>
</linearGradient>
<linearGradient x1="50" x2="50" y1="130" gradientUnits="userSpaceOnUse" y2="200" xlink:type="simple" xlink:actuate="onLoad" id="linearGradient4" xlink:show="other" spreadMethod="pad">
<stop stop-opacity="1" stop-color="white" offset="0%"/>
<stop stop-opacity="1" stop-color="rgb(195,209,213)" offset="100%"/>
</linearGradient>
<linearGradient x1="410" x2="410" y1="234" gradientUnits="userSpaceOnUse" y2="251" xlink:type="simple" xlink:actuate="onLoad" id="linearGradient5" xlink:show="other" spreadMethod="pad">
<stop stop-opacity="1" stop-color="white" offset="0%"/>
<stop stop-opacity="1" stop-color="rgb(195,209,213)" offset="100%"/>
</linearGradient>
<linearGradient x1="410" x2="410" y1="114" gradientUnits="userSpaceOnUse" y2="131" xlink:type="simple" xlink:actuate="onLoad" id="linearGradient6" xlink:show="other" spreadMethod="pad">
<stop stop-opacity="1" stop-color="white" offset="0%"/>
<stop stop-opacity="1" stop-color="rgb(195,209,213)" offset="100%"/>
</linearGradient>
<linearGradient x1="410" x2="410" y1="354" gradientUnits="userSpaceOnUse" y2="371" xlink:type="simple" xlink:actuate="onLoad" id="linearGradient7" xlink:show="other" spreadMethod="pad">
<stop stop-opacity="1" stop-color="white" offset="0%"/>
<stop stop-opacity="1" stop-color="rgb(195,209,213)" offset="100%"/>
</linearGradient>
<linearGradient x1="90" x2="90" y1="462" gradientUnits="userSpaceOnUse" y2="491" xlink:type="simple" xlink:actuate="onLoad" id="linearGradient8" xlink:show="other" spreadMethod="pad">
<stop stop-opacity="1" stop-color="white" offset="0%"/>
<stop stop-opacity="1" stop-color="rgb(195,209,213)" offset="100%"/>
</linearGradient>
<clipPath clipPathUnits="userSpaceOnUse" id="clipPath1">
<path d="M9 9 L332 9 L332 392 L9 392 L9 9 Z"/>
</clipPath>
<clipPath clipPathUnits="userSpaceOnUse" id="clipPath2">
<path d="M19 29 L63 29 L63 42 L19 42 L19 29 Z"/>
</clipPath>
<clipPath clipPathUnits="userSpaceOnUse" id="clipPath3">
<path d="M19 41 L78 41 L78 54 L19 54 L19 41 Z"/>
</clipPath>
<clipPath clipPathUnits="userSpaceOnUse" id="clipPath4">
<path d="M9 53 L317 53 L317 392 L9 392 L9 53 Z"/>
</clipPath>
<clipPath clipPathUnits="userSpaceOnUse" id="clipPath5">
<path d="M29 69 L292 69 L292 352 L29 352 L29 69 Z"/>
</clipPath>
<clipPath clipPathUnits="userSpaceOnUse" id="clipPath6">
<path d="M39 89 L151 89 L151 102 L39 102 L39 89 Z"/>
</clipPath>
<clipPath clipPathUnits="userSpaceOnUse" id="clipPath7">
<path d="M39 101 L209 101 L209 114 L39 114 L39 101 Z"/>
</clipPath>
<clipPath clipPathUnits="userSpaceOnUse" id="clipPath8">
<path d="M29 113 L277 113 L277 352 L29 352 L29 113 Z"/>
</clipPath>
<clipPath clipPathUnits="userSpaceOnUse" id="clipPath9">
<path d="M50 230 L50 299 L243 299 L243 230 Z"/>
</clipPath>
<clipPath clipPathUnits="userSpaceOnUse" id="clipPath10">
<path d="M124 232 L171 232 L171 245 L124 245 L124 232 Z"/>
</clipPath>
<clipPath clipPathUnits="userSpaceOnUse" id="clipPath11">
<path d="M51 244 L245 244 L245 257 L51 257 L51 244 Z"/>
</clipPath>
<clipPath clipPathUnits="userSpaceOnUse" id="clipPath12">
<path d="M50 256 L245 256 L245 301 L50 301 L50 256 Z"/>
</clipPath>
<clipPath clipPathUnits="userSpaceOnUse" id="clipPath13">
<path d="M49 229 L245 229 L245 301 L49 301 L49 229 Z"/>
</clipPath>
<clipPath clipPathUnits="userSpaceOnUse" id="clipPath14">
<path d="M50 130 L50 199 L239 199 L239 130 Z"/>
</clipPath>
<clipPath clipPathUnits="userSpaceOnUse" id="clipPath15">
<path d="M122 132 L169 132 L169 145 L122 145 L122 132 Z"/>
</clipPath>
<clipPath clipPathUnits="userSpaceOnUse" id="clipPath16">
<path d="M83 144 L208 144 L208 157 L83 157 L83 144 Z"/>
</clipPath>
<clipPath clipPathUnits="userSpaceOnUse" id="clipPath17">
<path d="M50 156 L241 156 L241 201 L50 201 L50 156 Z"/>
</clipPath>
<clipPath clipPathUnits="userSpaceOnUse" id="clipPath18">
<path d="M49 129 L241 129 L241 201 L49 201 L49 129 Z"/>
</clipPath>
<clipPath clipPathUnits="userSpaceOnUse" id="clipPath19">
<path d="M34 333 L272 333 L272 347 L34 347 L34 333 Z"/>
</clipPath>
<clipPath clipPathUnits="userSpaceOnUse" id="clipPath20">
<path d="M34 333 L48 333 L48 347 L34 347 L34 333 Z"/>
</clipPath>
<clipPath clipPathUnits="userSpaceOnUse" id="clipPath21">
<path d="M257 333 L271 333 L271 347 L257 347 L257 333 Z"/>
</clipPath>
<clipPath clipPathUnits="userSpaceOnUse" id="clipPath22">
<path d="M88 333 L259 333 L259 347 L88 347 L88 333 Z"/>
</clipPath>
<clipPath clipPathUnits="userSpaceOnUse" id="clipPath23">
<path d="M409 189 L572 189 L572 252 L409 252 L409 189 Z"/>
</clipPath>
<clipPath clipPathUnits="userSpaceOnUse" id="clipPath24">
<path d="M419 209 L463 209 L463 222 L419 222 L419 209 Z"/>
</clipPath>
<clipPath clipPathUnits="userSpaceOnUse" id="clipPath25">
<path d="M419 221 L502 221 L502 234 L419 234 L419 221 Z"/>
</clipPath>
<clipPath clipPathUnits="userSpaceOnUse" id="clipPath26">
<path d="M409 233 L557 233 L557 252 L409 252 L409 233 Z"/>
</clipPath>
<clipPath clipPathUnits="userSpaceOnUse" id="clipPath27">
<path d="M409 69 L572 69 L572 132 L409 132 L409 69 Z"/>
</clipPath>
<clipPath clipPathUnits="userSpaceOnUse" id="clipPath28">
<path d="M419 89 L463 89 L463 102 L419 102 L419 89 Z"/>
</clipPath>
<clipPath clipPathUnits="userSpaceOnUse" id="clipPath29">
<path d="M419 101 L526 101 L526 114 L419 114 L419 101 Z"/>
</clipPath>
<clipPath clipPathUnits="userSpaceOnUse" id="clipPath30">
<path d="M409 113 L557 113 L557 132 L409 132 L409 113 Z"/>
</clipPath>
<clipPath clipPathUnits="userSpaceOnUse" id="clipPath31">
<path d="M409 309 L572 309 L572 372 L409 372 L409 309 Z"/>
</clipPath>
<clipPath clipPathUnits="userSpaceOnUse" id="clipPath32">
<path d="M419 329 L463 329 L463 342 L419 342 L419 329 Z"/>
</clipPath>
<clipPath clipPathUnits="userSpaceOnUse" id="clipPath33">
<path d="M419 341 L502 341 L502 354 L419 354 L419 341 Z"/>
</clipPath>
<clipPath clipPathUnits="userSpaceOnUse" id="clipPath34">
<path d="M409 353 L557 353 L557 372 L409 372 L409 353 Z"/>
</clipPath>
<clipPath clipPathUnits="userSpaceOnUse" id="clipPath35">
<path d="M89 429 L252 429 L252 492 L89 492 L89 429 Z"/>
</clipPath>
<clipPath clipPathUnits="userSpaceOnUse" id="clipPath36">
<path d="M99 449 L136 449 L136 462 L99 462 L99 449 Z"/>
</clipPath>
<clipPath clipPathUnits="userSpaceOnUse" id="clipPath37">
<path d="M89 461 L237 461 L237 492 L89 492 L89 461 Z"/>
</clipPath>
<clipPath clipPathUnits="userSpaceOnUse" id="clipPath38">
<path d="M-1 -1 L582 -1 L582 502 L-1 502 L-1 -1 Z"/>
</clipPath>
<clipPath clipPathUnits="userSpaceOnUse" id="clipPath39">
<path d="M77 209 L143 209 L143 222 L77 222 L77 209 Z"/>
</clipPath>
<clipPath clipPathUnits="userSpaceOnUse" id="clipPath40">
<path d="M144 214 L157 214 L157 232 L144 232 L144 214 Z"/>
</clipPath>
<clipPath clipPathUnits="userSpaceOnUse" id="clipPath41">
<path d="M349 69 L402 69 L402 82 L349 82 L349 69 Z"/>
</clipPath>
<clipPath clipPathUnits="userSpaceOnUse" id="clipPath42">
<path d="M349 189 L402 189 L402 202 L349 202 L349 189 Z"/>
</clipPath>
<clipPath clipPathUnits="userSpaceOnUse" id="clipPath43">
<path d="M349 309 L402 309 L402 322 L349 322 L349 309 Z"/>
</clipPath>
<clipPath clipPathUnits="userSpaceOnUse" id="clipPath44">
<path d="M108 405 L153 405 L153 418 L108 418 L108 405 Z"/>
</clipPath>
</defs>
<g font-size="11" fill="url(#linearGradient1)" stroke-linejoin="round" stroke="url(#linearGradient1)" stroke-width="0" stroke-miterlimit="0">
<rect x="10" y="54" clip-path="url(#clipPath1)" width="306" height="337" stroke="none"/>
<text x="20" font-size="9" y="39" clip-path="url(#clipPath2)" fill="black" stroke="none" xml:space="preserve">«device»</text>
<text x="20" font-size="9" y="51" clip-path="url(#clipPath3)" fill="black" stroke="none" xml:space="preserve">Raspberry Pi</text>
</g>
<g font-size="11" stroke-width="1.1" stroke-linecap="butt">
<rect x="10" y="54" clip-path="url(#clipPath4)" fill="none" width="305" height="336"/>
<rect x="30" y="114" clip-path="url(#clipPath5)" fill="url(#linearGradient2)" width="246" height="237" stroke="none"/>
<text x="40" font-size="9" y="99" clip-path="url(#clipPath6)" stroke="none" xml:space="preserve">«executionEnvironment»</text>
<text x="40" font-size="9" y="111" clip-path="url(#clipPath7)" stroke="none" xml:space="preserve">Raspbian Jessie: Unix-Betriebssystem</text>
<rect x="30" y="114" clip-path="url(#clipPath8)" fill="none" width="245" height="236"/>
<rect x="50" y="230" clip-path="url(#clipPath9)" fill="url(#linearGradient3)" width="194" height="70" stroke="none"/>
<text x="125" font-size="9" y="242" clip-path="url(#clipPath10)" stroke="none" xml:space="preserve">«artifact»</text>
<text x="52" font-size="9" y="254" clip-path="url(#clipPath11)" stroke="none" xml:space="preserve">SmartMirror Anwendung: Python Programm</text>
<line clip-path="url(#clipPath12)" fill="none" x1="50" x2="244" y1="257" y2="257"/>
<rect x="50" y="230" clip-path="url(#clipPath13)" fill="none" width="193" rx="0" ry="0" height="69"/>
<rect x="50" y="130" clip-path="url(#clipPath14)" fill="url(#linearGradient4)" width="190" height="70" stroke="none"/>
<text x="123" font-size="9" y="142" clip-path="url(#clipPath15)" stroke="none" xml:space="preserve">«artifact»</text>
<text x="84" font-size="9" y="154" clip-path="url(#clipPath16)" stroke="none" xml:space="preserve">StartUp-Skript: Bash-Skript</text>
<line clip-path="url(#clipPath17)" fill="none" x1="50" x2="240" y1="157" y2="157"/>
<rect x="50" y="130" clip-path="url(#clipPath18)" fill="none" width="189" rx="0" ry="0" height="69"/>
<rect x="35" y="334" clip-path="url(#clipPath19)" fill="white" width="236" height="12" stroke="none"/>
<rect x="35" y="334" clip-path="url(#clipPath20)" fill="white" width="12" opacity="0.5098" height="12" stroke="none"/>
<rect x="35" y="334" clip-path="url(#clipPath20)" fill="none" width="12" opacity="0.5098" height="12" stroke="rgb(185,185,185)" stroke-width="35.1"/>
<line clip-path="url(#clipPath20)" fill="none" x1="106" x2="105" y1="339" y2="340" opacity="0.5098" stroke="rgb(187,187,187)" stroke-width="70.1"/>
<line clip-path="url(#clipPath20)" fill="none" x1="105" x2="106" y1="340" y2="341" opacity="0.5098" stroke="rgb(187,187,187)" stroke-width="70.1"/>
<rect x="258" y="334" clip-path="url(#clipPath21)" fill="white" width="12" opacity="0.5098" height="12" stroke="none" stroke-width="70.1"/>
<rect x="258" y="334" clip-path="url(#clipPath21)" fill="none" width="12" opacity="0.5098" height="12" stroke="rgb(185,185,185)" stroke-width="35.1"/>
<line clip-path="url(#clipPath21)" fill="none" x1="328" x2="329" y1="339" y2="340" opacity="0.5098" stroke="rgb(187,187,187)" stroke-width="70.1"/>
<line clip-path="url(#clipPath21)" fill="none" x1="329" x2="328" y1="340" y2="341" opacity="0.5098" stroke="rgb(187,187,187)" stroke-width="70.1"/>
<rect x="89" y="334" clip-path="url(#clipPath22)" fill="white" width="169" opacity="0.5098" height="12" stroke="none" stroke-width="70.1"/>
<rect x="89" y="334" clip-path="url(#clipPath22)" fill="none" width="169" opacity="0.5098" height="12" stroke="rgb(185,185,185)" stroke-width="35.1"/>
<line clip-path="url(#clipPath8)" fill="none" x1="30" x2="276" y1="114" y2="114"/>
<rect x="30" y="85" clip-path="url(#clipPath5)" fill="none" width="245" height="265"/>
<line clip-path="url(#clipPath5)" fill="none" x1="30" x2="45" y1="85" y2="70"/>
<line clip-path="url(#clipPath5)" fill="none" x1="275" x2="290" y1="85" y2="70"/>
<line clip-path="url(#clipPath5)" fill="none" x1="275" x2="290" y1="351" y2="336"/>
<line clip-path="url(#clipPath5)" fill="none" x1="45" x2="291" y1="70" y2="70"/>
<line clip-path="url(#clipPath5)" fill="none" x1="290" x2="290" y1="70" y2="336"/>
<line clip-path="url(#clipPath4)" fill="none" x1="10" x2="316" y1="54" y2="54"/>
<rect x="10" y="25" clip-path="url(#clipPath1)" fill="none" width="305" height="365"/>
<line clip-path="url(#clipPath1)" fill="none" x1="10" x2="25" y1="25" y2="10"/>
<line clip-path="url(#clipPath1)" fill="none" x1="315" x2="330" y1="25" y2="10"/>
<line clip-path="url(#clipPath1)" fill="none" x1="315" x2="330" y1="391" y2="376"/>
<line clip-path="url(#clipPath1)" fill="none" x1="25" x2="331" y1="10" y2="10"/>
<line clip-path="url(#clipPath1)" fill="none" x1="330" x2="330" y1="10" y2="376"/>
<rect x="410" y="234" clip-path="url(#clipPath23)" fill="url(#linearGradient5)" width="146" height="17" stroke="none"/>
<text x="420" font-size="9" y="219" clip-path="url(#clipPath24)" stroke="none" xml:space="preserve">«device»</text>
<text x="420" font-size="9" y="231" clip-path="url(#clipPath25)" stroke="none" xml:space="preserve">Temperatursenosr</text>
<rect x="410" y="234" clip-path="url(#clipPath26)" fill="none" width="145" height="16"/>
<line clip-path="url(#clipPath26)" fill="none" x1="410" x2="556" y1="234" y2="234"/>
<rect x="410" y="205" clip-path="url(#clipPath23)" fill="none" width="145" height="45"/>
<line clip-path="url(#clipPath23)" fill="none" x1="410" x2="425" y1="205" y2="190"/>
<line clip-path="url(#clipPath23)" fill="none" x1="555" x2="570" y1="205" y2="190"/>
<line clip-path="url(#clipPath23)" fill="none" x1="555" x2="570" y1="251" y2="236"/>
<line clip-path="url(#clipPath23)" fill="none" x1="425" x2="571" y1="190" y2="190"/>
<line clip-path="url(#clipPath23)" fill="none" x1="570" x2="570" y1="190" y2="236"/>
<rect x="410" y="114" clip-path="url(#clipPath27)" fill="url(#linearGradient6)" width="146" height="17" stroke="none"/>
<text x="420" font-size="9" y="99" clip-path="url(#clipPath28)" stroke="none" xml:space="preserve">«device»</text>
<text x="420" font-size="9" y="111" clip-path="url(#clipPath29)" stroke="none" xml:space="preserve">Luftfeuchtigkeitssensor</text>
<rect x="410" y="114" clip-path="url(#clipPath30)" fill="none" width="145" height="16"/>
<line clip-path="url(#clipPath30)" fill="none" x1="410" x2="556" y1="114" y2="114"/>
<rect x="410" y="85" clip-path="url(#clipPath27)" fill="none" width="145" height="45"/>
<line clip-path="url(#clipPath27)" fill="none" x1="410" x2="425" y1="85" y2="70"/>
<line clip-path="url(#clipPath27)" fill="none" x1="555" x2="570" y1="85" y2="70"/>
<line clip-path="url(#clipPath27)" fill="none" x1="555" x2="570" y1="131" y2="116"/>
<line clip-path="url(#clipPath27)" fill="none" x1="425" x2="571" y1="70" y2="70"/>
<line clip-path="url(#clipPath27)" fill="none" x1="570" x2="570" y1="70" y2="116"/>
<rect x="410" y="354" clip-path="url(#clipPath31)" fill="url(#linearGradient7)" width="146" height="17" stroke="none"/>
<text x="420" font-size="9" y="339" clip-path="url(#clipPath32)" stroke="none" xml:space="preserve">«device»</text>
<text x="420" font-size="9" y="351" clip-path="url(#clipPath33)" stroke="none" xml:space="preserve">Bewegungssensor</text>
<rect x="410" y="354" clip-path="url(#clipPath34)" fill="none" width="145" height="16"/>
<line clip-path="url(#clipPath34)" fill="none" x1="410" x2="556" y1="354" y2="354"/>
<rect x="410" y="325" clip-path="url(#clipPath31)" fill="none" width="145" height="45"/>
<line clip-path="url(#clipPath31)" fill="none" x1="410" x2="425" y1="325" y2="310"/>
<line clip-path="url(#clipPath31)" fill="none" x1="555" x2="570" y1="325" y2="310"/>
<line clip-path="url(#clipPath31)" fill="none" x1="555" x2="570" y1="371" y2="356"/>
<line clip-path="url(#clipPath31)" fill="none" x1="425" x2="571" y1="310" y2="310"/>
<line clip-path="url(#clipPath31)" fill="none" x1="570" x2="570" y1="310" y2="356"/>
<rect x="90" y="462" clip-path="url(#clipPath35)" fill="url(#linearGradient8)" width="146" height="29" stroke="none"/>
<text x="100" font-size="9" y="459" clip-path="url(#clipPath36)" stroke="none" xml:space="preserve">Internet</text>
<rect x="90" y="462" clip-path="url(#clipPath37)" fill="none" width="145" height="28"/>
<line clip-path="url(#clipPath37)" fill="none" x1="90" x2="236" y1="462" y2="462"/>
<rect x="90" y="445" clip-path="url(#clipPath35)" fill="none" width="145" height="45"/>
<line clip-path="url(#clipPath35)" fill="none" x1="90" x2="105" y1="445" y2="430"/>
<line clip-path="url(#clipPath35)" fill="none" x1="235" x2="250" y1="445" y2="430"/>
<line clip-path="url(#clipPath35)" fill="none" x1="235" x2="250" y1="491" y2="476"/>
<line clip-path="url(#clipPath35)" fill="none" x1="105" x2="251" y1="430" y2="430"/>
<line clip-path="url(#clipPath35)" fill="none" x1="250" x2="250" y1="430" y2="476"/>
<line clip-path="url(#clipPath38)" fill="none" text-rendering="optimizeLegibility" x1="150" x2="150" y1="200" y2="230" stroke-dasharray="5,5,5,5,5,5,5,5,5,5"/>
<text x="78" font-size="9" y="219" clip-path="url(#clipPath39)" text-rendering="optimizeLegibility" stroke-dasharray="5,5,5,5,5,5,5,5,5,5" stroke="none" xml:space="preserve">&lt;&lt;executes&gt;&gt;</text>
<line clip-path="url(#clipPath40)" fill="none" text-rendering="optimizeLegibility" x1="145" x2="150" y1="215" y2="230"/>
<line clip-path="url(#clipPath40)" fill="none" text-rendering="optimizeLegibility" x1="150" x2="155" y1="230" y2="215"/>
<line clip-path="url(#clipPath38)" fill="none" text-rendering="optimizeLegibility" x1="410" x2="331" y1="90" y2="90"/>
<text x="350" font-size="9" y="79" clip-path="url(#clipPath41)" text-rendering="optimizeLegibility" stroke="none" xml:space="preserve">&lt;&lt;seriell&gt;&gt;</text>
<line clip-path="url(#clipPath38)" fill="none" text-rendering="optimizeLegibility" x1="410" x2="331" y1="210" y2="210"/>
<text x="350" font-size="9" y="199" clip-path="url(#clipPath42)" text-rendering="optimizeLegibility" stroke="none" xml:space="preserve">&lt;&lt;seriell&gt;&gt;</text>
<line clip-path="url(#clipPath38)" fill="none" text-rendering="optimizeLegibility" x1="410" x2="331" y1="330" y2="330"/>
<text x="350" font-size="9" y="319" clip-path="url(#clipPath43)" text-rendering="optimizeLegibility" stroke="none" xml:space="preserve">&lt;&lt;seriell&gt;&gt;</text>
<line clip-path="url(#clipPath38)" fill="none" text-rendering="optimizeLegibility" x1="170" x2="170" y1="391" y2="430"/>
<text x="109" font-size="9" y="415" clip-path="url(#clipPath44)" text-rendering="optimizeLegibility" stroke="none" xml:space="preserve">&lt;&lt;http&gt;&gt;</text>
<line clip-path="url(#clipPath38)" fill="none" text-rendering="optimizeLegibility" x1="150" x2="150" y1="200" y2="230" stroke-dasharray="5,5,5,5,5,5,5,5,5,5"/>
<text x="78" font-size="9" y="219" clip-path="url(#clipPath39)" text-rendering="optimizeLegibility" stroke-dasharray="5,5,5,5,5,5,5,5,5,5" stroke="none" xml:space="preserve">&lt;&lt;executes&gt;&gt;</text>
<line clip-path="url(#clipPath40)" fill="none" text-rendering="optimizeLegibility" x1="145" x2="150" y1="215" y2="230"/>
<line clip-path="url(#clipPath40)" fill="none" text-rendering="optimizeLegibility" x1="150" x2="155" y1="230" y2="215"/>
</g>
</g>
</svg>
